<svg width="38" height="41" viewBox="0 0 38 41" fill="none" xmlns="http://www.w3.org/2000/svg">
<path fill-rule="evenodd" clip-rule="evenodd" d="M19.2234 40.9126C29.536 40.9126 37.8961 31.754 37.8961 20.4563C37.8961 9.1586 29.536 0 19.2234 0C8.91081 0 0.550781 9.1586 0.550781 20.4563C0.550781 31.754 8.91081 40.9126 19.2234 40.9126ZM13.4561 21.2656C13.4561 18.0421 15.8754 15.4421 18.8746 15.4421C21.8739 15.4421 24.2932 18.0421 24.2932 21.2656C24.2932 24.4891 21.8739 27.0892 18.8746 27.0892C15.8754 27.0892 13.4561 24.4891 13.4561 21.2656ZM15.3519 21.2656C15.3519 23.3538 16.9364 25.0517 18.8746 25.0517C20.8129 25.0517 22.3974 23.3538 22.3974 21.2656C22.3974 19.1775 20.8176 17.4796 18.8746 17.4796C16.9317 17.4796 15.3519 19.1775 15.3519 21.2656ZM24.5148 16.5622C25.2128 16.5622 25.7787 15.959 25.7787 15.2038C25.7787 14.4537 25.2128 13.8455 24.5148 13.8455C23.8169 13.8455 23.251 14.4537 23.251 15.2038C23.251 15.954 23.8121 16.5622 24.5148 16.5622ZM27.6603 11.8232C28.9006 13.1512 29.2873 14.7629 29.3674 16.5824C29.4665 18.4577 29.4665 24.0735 29.3674 25.9488C29.2825 27.7684 28.8958 29.3801 27.6603 30.708C26.4247 32.041 24.9251 32.4566 23.2321 32.5428C21.4872 32.6492 16.2573 32.6492 14.5125 32.5428C12.8195 32.4515 11.3245 32.0359 10.0843 30.708C8.844 29.3801 8.4573 27.7684 8.37713 25.9488C8.2781 24.0735 8.2781 18.4527 8.37713 16.5774C8.46202 14.7578 8.844 13.1461 10.0843 11.8182C11.3245 10.4903 12.8242 10.0746 14.5125 9.98848C16.2573 9.88205 21.4872 9.88205 23.2321 9.98848C24.9251 10.0797 26.4247 10.4953 27.6603 11.8232ZM25.1043 30.1201C26.0333 29.7197 26.7454 28.9544 27.1132 27.961C27.5865 26.6829 27.5602 23.8872 27.5431 22.0749C27.5403 21.7743 27.5377 21.5007 27.5377 21.2656C27.5377 21.0305 27.5403 20.757 27.5431 20.4565C27.5602 18.6452 27.5865 15.8527 27.1132 14.5703C26.7407 13.5718 26.0286 12.8065 25.1043 12.4112C23.9114 11.9053 21.2975 11.9322 19.6117 11.9496C19.3383 11.9524 19.0892 11.955 18.8746 11.955C18.6559 11.955 18.4014 11.9522 18.1218 11.9492C16.4364 11.9308 13.8382 11.9026 12.645 12.4112C11.716 12.8116 11.0039 13.5769 10.636 14.5703C10.1653 15.8524 10.1904 18.6617 10.2066 20.4734C10.2092 20.7673 10.2116 21.035 10.2116 21.2656C10.2116 21.5008 10.209 21.7743 10.2062 22.0748C10.1891 23.8861 10.1628 26.6786 10.636 27.961C11.0086 28.9594 11.7207 29.7248 12.645 30.1201C13.8379 30.626 16.4518 30.599 18.1375 30.5816C18.411 30.5788 18.66 30.5763 18.8746 30.5763C19.0934 30.5763 19.3479 30.579 19.6275 30.5821C21.3129 30.6004 23.9111 30.6287 25.1043 30.1201Z" fill="#2B2E76"/>
</svg>
