<svg width="38" height="41" viewBox="0 0 38 41" fill="none" xmlns="http://www.w3.org/2000/svg">
<path fill-rule="evenodd" clip-rule="evenodd" d="M19.3269 40.9126C29.6396 40.9126 37.9996 31.754 37.9996 20.4563C37.9996 9.1586 29.6396 0 19.3269 0C9.01433 0 0.654297 9.1586 0.654297 20.4563C0.654297 31.754 9.01433 40.9126 19.3269 40.9126ZM27.3863 16.435C27.3863 16.2123 27.3863 15.9895 27.3728 15.7668C28.2179 15.0349 28.9556 14.1281 29.5457 13.1099C28.7678 13.5076 27.9227 13.794 27.0509 13.9054C27.9495 13.269 28.6336 12.2667 28.9555 11.0735C28.1239 11.6621 27.185 12.0917 26.2059 12.3144C25.4145 11.3121 24.2878 10.6916 23.0404 10.6916C20.6395 10.6916 18.708 12.9985 18.708 15.8304C18.708 16.2282 18.7482 16.6259 18.8153 17.0077C15.2206 16.7849 12.0149 14.7485 9.88224 11.6303C9.50665 12.3939 9.29208 13.269 9.29208 14.2235C9.29208 16.0054 10.0566 17.5804 11.2235 18.5032C10.5127 18.4714 9.84198 18.2328 9.26524 17.851V17.9146C9.26524 20.4124 10.7541 22.4806 12.7393 22.9579C12.3771 23.0692 11.9881 23.1329 11.5992 23.1329C11.3175 23.1329 11.0492 23.1011 10.7809 23.0534C11.3309 25.0898 12.927 26.5694 14.8317 26.6171C13.3428 28.0013 11.4784 28.8126 9.45306 28.8126C9.09089 28.8126 8.7556 28.7967 8.40685 28.749C10.3249 30.2126 12.6051 31.0559 15.0597 31.0559C23.0271 31.0559 27.3863 23.2283 27.3863 16.435Z" fill="white"/>
</svg>
