<svg width="38" height="41" viewBox="0 0 38 41" fill="none" xmlns="http://www.w3.org/2000/svg">
<path fill-rule="evenodd" clip-rule="evenodd" d="M18.7762 40.9126C29.0888 40.9126 37.4488 31.754 37.4488 20.4563C37.4488 9.1586 29.0888 0 18.7762 0C8.46354 0 0.103516 9.1586 0.103516 20.4563C0.103516 31.754 8.46354 40.9126 18.7762 40.9126ZM25.9618 18.2757L25.158 22.2447H20.9357V31.8394H15.273V22.2447H10.672V18.2757H15.273V15.2508C15.273 11.8096 17.9786 9.90866 22.1178 9.90866C24.1003 9.90866 26.1738 10.1768 26.1738 10.1768V13.5559H23.8889C21.6378 13.5559 20.9357 14.6143 20.9357 15.7002V18.2757H25.9618Z" fill="white"/>
</svg>
