<svg width="38" height="41" viewBox="0 0 38 41" fill="none" xmlns="http://www.w3.org/2000/svg">
<path fill-rule="evenodd" clip-rule="evenodd" d="M18.6726 40.9126C28.9853 40.9126 37.3453 31.754 37.3453 20.4563C37.3453 9.1586 28.9853 0 18.6726 0C8.36003 0 0 9.1586 0 20.4563C0 31.754 8.36003 40.9126 18.6726 40.9126ZM10.8375 29.4897H14.1974V17.9853H10.8375V29.4897ZM10.5698 14.3274C10.5698 15.4698 11.4412 16.416 12.5156 16.416C13.5897 16.416 14.4615 15.4698 14.4615 14.3274C14.4615 13.7787 14.2565 13.2524 13.8915 12.8644C13.5266 12.4764 13.0317 12.2585 12.5156 12.2585C11.9995 12.2585 11.5046 12.4764 11.1397 12.8644C10.7748 13.2524 10.5698 13.7787 10.5698 14.3274ZM23.4199 29.4897H26.7726H26.7762V23.1702C26.7762 20.0777 26.1511 17.6968 22.7506 17.6968C21.1159 17.6968 20.0201 18.6507 19.5716 19.5546H19.5245V17.9853H16.3021V29.4897H19.6584V23.7933C19.6584 22.2932 19.9261 20.8431 21.673 20.8431C23.3946 20.8431 23.4199 22.5548 23.4199 23.8894V29.4897Z" fill="#2B2E76"/>
</svg>
