<svg xmlns="http://www.w3.org/2000/svg" xmlns:xlink="http://www.w3.org/1999/xlink" viewBox="0 0 1024.96 1336.89"><defs><style>.cls-1{font-size:185.9px;font-family:TrebuchetMS-Bold, Trebuchet MS;font-weight:700;}.cls-1,.cls-2,.cls-3{fill:#2b2e76;}.cls-2{font-size:141.49px;}.cls-2,.cls-3{font-family:TrebuchetMS, Trebuchet MS;}.cls-3{font-size:140.86px;}.cls-4{letter-spacing:-0.11em;}.cls-5{letter-spacing:-0.02em;}.cls-6{fill:url(#linear-gradient);}.cls-7{fill:#f2f2f2;}</style><linearGradient id="linear-gradient" x1="229.34" y1="127.8" x2="828.91" y2="954.41" gradientUnits="userSpaceOnUse"><stop offset="0" stop-color="#457fc1"/><stop offset="0.23" stop-color="#3878b9"/><stop offset="0.65" stop-color="#1566a4"/><stop offset="0.87" stop-color="#005b97"/></linearGradient></defs><g id="Layer_2" data-name="Layer 2"><g id="Layer_1-2" data-name="Layer 1"><text class="cls-1" transform="translate(72.59 1178.98) scale(0.97 1)">AMERICAN</text><text class="cls-2" transform="translate(0 1299.79) scale(0.97 1)">LABOR</text><text class="cls-3" transform="translate(451.09 1297.43) scale(0.97 1)">COM<tspan class="cls-4" x="279.11" y="0">P</tspan><tspan x="341.98" y="0">AN</tspan><tspan class="cls-5" x="514.96" y="0">Y</tspan></text><circle class="cls-6" cx="497.5" cy="497.5" r="497.5"/><ellipse class="cls-7" cx="749.71" cy="269.53" rx="104.88" ry="110.69"/><ellipse class="cls-7" cx="254.8" cy="273.61" rx="104.88" ry="110.69"/><path class="cls-7" d="M838.32,553.63c0,100.49-46.73,253.78-86.27,253.78S661.2,650.25,661.2,549.75s51.32-106.26,90.85-106.26S838.32,453.13,838.32,553.63Z"/><path class="cls-7" d="M343.4,557.7c0,100.5-46.73,253.79-86.26,253.79s-90.85-157.17-90.85-257.66,51.32-106.26,90.85-106.26S343.4,457.21,343.4,557.7Z"/><path class="cls-7" d="M565.25,503.56l69-.91a2.51,2.51,0,0,1,2.49,3.13c-3.62,14.2-4.67,28.9-4.55,43.53s.3,29.6,5.22,43.45l0,0a2.54,2.54,0,0,1-2.38,3.42l-53-.09a2.53,2.53,0,0,1-2.4-3.34c1.31-3.79,3.33-7.35,5-11,2.13-4.73,3.65-10.13,2.06-15.07-1.53-4.78-5.65-8.21-9.64-11.26-9.19-7-18.75-13.56-28.44-19.85-4.86-3.15-9.75-6.24-14.65-9.31-4.33-2.71-8.87-6.41-13.68-8.21a8.2,8.2,0,0,0-5.17-.34c-3.58,1.09-5.9,5.21-7.69,8.24-2.44,4.15-4.31,8.59-6.4,12.92-2.8,5.78-6.12,11.53-11.21,15.46s-12.29,5.67-18.05,2.84c-4.63-2.28-7.62-7.16-8.53-12.24s0-10.33,1.63-15.24c3-9.13,8.23-17.32,12.84-25.75s9.13-17.84,17.32-23.13c10.71-6.91,25.08-4.94,36.59.56,12.32,5.89,23.1,14.88,34.59,22.19"/><path class="cls-7" d="M514.83,536.6a15.73,15.73,0,0,0-3.19,4.63c-4.55,8.83-9.25,18.2-17.59,23.59a27.29,27.29,0,0,1-42-20.69c-.85-10.35,4.18-20.17,9.06-29.34,0-.85,1.34-2.5,1.75-3.27l2-3.69,3.82-7.18,3.82-7.17c1.11-2.08,2.73-4.31,3.46-6.56a2.07,2.07,0,0,0-1.43-2.83,21.24,21.24,0,0,0-5.16-.53c-1.92-.11-3.84-.19-5.76-.22-3.84-.08-7.69,0-11.52.24-5.74.36-11.64,1.12-16.63,4-7.93,4.56-12.11,13.53-15.16,22.15a7.09,7.09,0,0,1-2.06,3.51,7,7,0,0,1-4.26.92l-25.18,0-12.59,0c-2.34,0-7.85-1.17-9.25,1.32-1.3,2.31.8,8.25,1.14,10.8q.81,6.15,1.36,12.34,1.13,12.36,1.23,24.79t-.79,25.06q-.46,6.26-1.21,12.48c-.19,1.62-1,3.85.19,4.63,1,.65,4.34.15,5.56.17,15.31.18,29.62-3.51,44.92-2,5.54.55,14.5,1.3,19.7,3.3,8.47,2.6,21,11,21,11s21.18,13.12,31,14,18.83-2,23-11c3.92,4.71,11.58,2.84,17,0,5.26-2.75,8.88-7.76,11-13a30.17,30.17,0,0,1,2-4.3,30.84,30.84,0,0,1,2.27-3.89c1.83-2.59,2.27-.77,4.34.43a8.93,8.93,0,0,0,8,.12c3.64-1.73,6-5.28,8-8.8a80.09,80.09,0,0,0,6.82-16.41,10.34,10.34,0,0,0,.5-5.57c-.73-2.7-3.3-4.4-5.69-5.85-14.28-8.72-28.92-20-43.2-28.73-2.54-1.55-5-2.31-7-1A8.25,8.25,0,0,0,514.83,536.6Z"/></g></g></svg>